<?xml version="1.0" encoding="UTF-8"?>
<svg id="Layer_1" xmlns="http://www.w3.org/2000/svg" version="1.1" viewBox="0 0 60 51.9">
  <!-- Generator: Adobe Illustrator 29.2.1, SVG Export Plug-In . SVG Version: 2.1.0 Build 116)  -->
  <path d="M60,13.4C60,5.4,53.4,0,43.5,0h-21.8c0,0-.1,0-.1.1,0,0,0,0,0,0v1.6c0,0,0,0,0,.1.6.2,4.6,1.4,4.6,7v6.2c0,0,0,.1.1.1h7.2c0,0,.1,0,.1-.1V3.5c0-.9.8-1.7,1.7-1.7h4.8c5.3,0,12.2,2.6,12.2,11.6s-6.9,11.7-12.2,11.7h-23.7c-9.7,0-16.5,5.5-16.5,13.5s6.6,13.4,16.5,13.4h21.8c0,0,.1,0,.1-.1v-1.6s0,0,0-.1c-.6-.2-4.7-1.4-4.7-7v-6.2c0,0,0-.1-.1-.1h-10.4c-.1,0-.2.1,0,.2l3.2,2.9v8.5c0,.9-.8,1.7-1.7,1.7h-4.8c-5.3,0-12.2-2.6-12.2-11.6s6.9-11.7,12.2-11.7h23.7c9.7,0,16.5-5.5,16.5-13.5,0,0,0,0,0,0Z"/>
</svg>